<svg width="8" height="10" viewBox="0 0 8 10" fill="none" xmlns="http://www.w3.org/2000/svg">
<path d="M0.876953 10V8.89551L3.87939 5.82324C4.29411 5.4043 4.61572 5.05941 4.84424 4.78857C5.07699 4.51351 5.23991 4.2723 5.33301 4.06494C5.42611 3.85335 5.47266 3.63118 5.47266 3.39844V3.37939C5.47266 3.1001 5.4113 2.85042 5.28857 2.63037C5.16585 2.41032 4.99023 2.23893 4.76172 2.11621C4.5332 1.98926 4.26025 1.92578 3.94287 1.92578C3.62126 1.92578 3.33773 1.99349 3.09229 2.12891C2.84684 2.26009 2.65641 2.44417 2.521 2.68115C2.38558 2.91813 2.31787 3.19531 2.31787 3.5127L2.31152 3.53809L0.788086 3.53174L0.781738 3.5127C0.781738 2.94141 0.919271 2.43783 1.19434 2.00195C1.4694 1.56608 1.85026 1.22542 2.33691 0.97998C2.82357 0.734538 3.38639 0.611816 4.02539 0.611816C4.61784 0.611816 5.14469 0.723958 5.60596 0.948242C6.07145 1.17253 6.43538 1.48145 6.69775 1.875C6.96012 2.26855 7.09131 2.72347 7.09131 3.23975V3.25879C7.09131 3.60156 7.02572 3.93799 6.89453 4.26807C6.76335 4.59391 6.53906 4.9515 6.22168 5.34082C5.90853 5.73014 5.47477 6.19352 4.92041 6.73096L2.6543 8.93359L3.08594 8.20996V8.93359L2.6543 8.64795H7.23096V10H0.876953Z" fill="#56585A"/>
</svg>
