<svg width="16" height="16" viewBox="0 0 16 16" fill="none" xmlns="http://www.w3.org/2000/svg">
<g clip-path="url(#clip0_159_6262)">
<path d="M0 4C0 1.79086 1.79086 0 4 0H12C14.2091 0 16 1.79086 16 4V12C16 14.2091 14.2091 16 12 16H4C1.79086 16 0 14.2091 0 12V4Z" fill="#2FD8A7"/>
<mask id="mask0_159_6262" style="mask-type:alpha" maskUnits="userSpaceOnUse" x="0" y="0" width="16" height="16">
<rect width="16" height="16" fill="#D9D9D9"/>
</mask>
<g mask="url(#mask0_159_6262)">
<path d="M6.66654 9.06637L10.5999 5.13304C10.7221 5.01082 10.8776 4.94971 11.0665 4.94971C11.2554 4.94971 11.411 5.01082 11.5332 5.13304C11.6554 5.25526 11.7165 5.41082 11.7165 5.59971C11.7165 5.7886 11.6554 5.94415 11.5332 6.06637L7.1332 10.4664C6.99987 10.5997 6.84431 10.6664 6.66654 10.6664C6.48876 10.6664 6.3332 10.5997 6.19987 10.4664L4.46654 8.73304C4.34431 8.61082 4.2832 8.45526 4.2832 8.26637C4.2832 8.07748 4.34431 7.92193 4.46654 7.79971C4.58876 7.67748 4.74431 7.61637 4.9332 7.61637C5.12209 7.61637 5.27765 7.67748 5.39987 7.79971L6.66654 9.06637Z" fill="white"/>
</g>
</g>
<defs>
<clipPath id="clip0_159_6262">
<path d="M0 4C0 1.79086 1.79086 0 4 0H12C14.2091 0 16 1.79086 16 4V12C16 14.2091 14.2091 16 12 16H4C1.79086 16 0 14.2091 0 12V4Z" fill="white"/>
</clipPath>
</defs>
</svg>
