<svg width="28" height="28" viewBox="0 0 28 28" fill="none" xmlns="http://www.w3.org/2000/svg">
<mask id="mask0_159_14" style="mask-type:alpha" maskUnits="userSpaceOnUse" x="0" y="0" width="28" height="28">
<rect width="28" height="28" fill="#D9D9D9"/>
</mask>
<g mask="url(#mask0_159_14)">
<path d="M15.1042 14L10.3521 9.2482C10.1907 9.08662 10.1081 8.88352 10.1042 8.63891C10.1005 8.39449 10.1831 8.1877 10.3521 8.01853C10.5213 7.84956 10.7262 7.76508 10.9669 7.76508C11.2076 7.76508 11.4126 7.84956 11.5818 8.01853L16.825 13.2618C16.9341 13.3711 17.0111 13.4863 17.0561 13.6075C17.101 13.7286 17.1234 13.8595 17.1234 14C17.1234 14.1406 17.101 14.2715 17.0561 14.3926C17.0111 14.5138 16.9341 14.629 16.825 14.7382L11.5818 19.9815C11.4202 20.1429 11.2171 20.2256 10.9725 20.2295C10.728 20.2331 10.5213 20.1505 10.3521 19.9815C10.1831 19.8124 10.0986 19.6074 10.0986 19.3667C10.0986 19.126 10.1831 18.921 10.3521 18.7519L15.1042 14Z" fill="#242628"/>
</g>
</svg>
