<svg width="28" height="28" viewBox="0 0 28 28" fill="none" xmlns="http://www.w3.org/2000/svg">
<mask id="mask0_159_4253" style="mask-type:alpha" maskUnits="userSpaceOnUse" x="0" y="0" width="28" height="28">
<rect width="28" height="28" fill="#D9D9D9"/>
</mask>
<g mask="url(#mask0_159_4253)">
<path d="M12.196 13.9997L16.9481 18.7516C17.1095 18.9132 17.1921 19.1163 17.196 19.3609C17.1997 19.6053 17.1171 19.8121 16.9481 19.9812C16.7789 20.1502 16.574 20.2347 16.3333 20.2347C16.0925 20.2347 15.8876 20.1502 15.7184 19.9812L10.4751 14.7379C10.366 14.6287 10.289 14.5135 10.2441 14.3923C10.1992 14.2712 10.1768 14.1403 10.1768 13.9997C10.1768 13.8592 10.1992 13.7283 10.2441 13.6072C10.289 13.486 10.366 13.3708 10.4751 13.2615L15.7184 8.01824C15.88 7.85685 16.0831 7.77421 16.3277 7.77032C16.5721 7.76663 16.7789 7.84927 16.9481 8.01824C17.1171 8.1874 17.2016 8.39235 17.2016 8.63307C17.2016 8.87379 17.1171 9.07874 16.9481 9.24791L12.196 13.9997Z" fill="#242628"/>
</g>
</svg>
