<svg width="37" height="38" viewBox="0 0 37 38" fill="none" xmlns="http://www.w3.org/2000/svg">
<mask id="mask0_135_8044" style="mask-type:alpha" maskUnits="userSpaceOnUse" x="4" y="5" width="29" height="28">
<rect x="4.77832" y="5" width="28" height="28" fill="#D9D9D9"/>
</mask>
<g mask="url(#mask0_135_8044)">
<path d="M17.9036 19.8748H12.0703C11.8224 19.8748 11.6146 19.7909 11.447 19.6231C11.2792 19.4553 11.1953 19.2475 11.1953 18.9995C11.1953 18.7514 11.2792 18.5437 11.447 18.3763C11.6146 18.2086 11.8224 18.1248 12.0703 18.1248H17.9036V12.2915C17.9036 12.0436 17.9875 11.8358 18.1554 11.6682C18.3232 11.5004 18.531 11.4165 18.7789 11.4165C19.027 11.4165 19.2348 11.5004 19.4022 11.6682C19.5698 11.8358 19.6536 12.0436 19.6536 12.2915V18.1248H25.487C25.7349 18.1248 25.9427 18.2087 26.1103 18.3765C26.2781 18.5444 26.362 18.7522 26.362 19.0001C26.362 19.2482 26.2781 19.456 26.1103 19.6234C25.9427 19.791 25.7349 19.8748 25.487 19.8748H19.6536V25.7082C19.6536 25.9561 19.5697 26.1639 19.4019 26.3315C19.2341 26.4993 19.0263 26.5832 18.7784 26.5832C18.5302 26.5832 18.3225 26.4993 18.1551 26.3315C17.9875 26.1639 17.9036 25.9561 17.9036 25.7082V19.8748Z" fill="#A1A3A5"/>
</g>
</svg>
