<svg width="54" height="54" viewBox="0 0 54 54" fill="none" xmlns="http://www.w3.org/2000/svg">
<g filter="url(#filter0_di_135_7244)">
<path d="M31.2018 10.3015C33.1029 10.3953 34.6155 11.9663 34.6155 13.8906C34.6155 14.6699 35.459 15.1569 36.1339 14.7673C37.8004 13.8051 39.9172 14.3295 40.9489 15.929C44.0939 20.8049 32.2241 25.6562 29.5001 27.0163C29.4562 27.0382 29.4197 27.0726 29.3952 27.1151C29.2776 27.3188 29.4783 27.5585 29.6986 27.476C32.1871 26.5445 43.3814 21.9296 44.6786 26.7113C45.1769 28.5483 44.1502 30.4723 42.32 31.067C41.5789 31.3078 41.3764 32.2605 41.9555 32.782C43.2053 33.9072 43.8407 36.919 42.0667 37.9522C38.0987 40.2635 31.9083 33.9707 28.3752 30.3792C28.2788 30.2812 28.215 30.207 28.0772 30.1776C27.8 30.1187 27.5428 30.3403 27.5711 30.6222C27.9989 34.8798 30.3598 38.7578 34.0389 40.9877C36.4654 42.4582 34.4672 44.7628 32.8117 43.903C28.0186 41.4138 25.3832 36.0483 26.3592 30.723C26.4228 30.3762 25.9262 30.2091 25.7795 30.5166C24.5988 32.9913 19.5406 44.8454 15.1323 42.1935C13.5013 41.2123 12.911 39.1129 13.8206 37.4171C14.1889 36.7304 13.6758 35.9025 12.8969 35.9268C10.9735 35.987 9.35596 34.5243 9.20285 32.6271C8.71277 26.5545 21.3407 28.1749 24.4776 28.2666C24.5625 28.2691 24.6464 28.2465 24.7186 28.2017C25.1074 27.9608 25.089 27.4617 24.4754 27.2939C21.8376 26.5721 9.33969 23.6971 11.163 18.9029C11.8396 17.1239 13.8011 16.1708 15.6313 16.7655C16.3724 17.0063 17.0962 16.3545 16.9342 15.5923C16.5846 13.9473 17.8407 11.1373 19.8832 11.3441C24.4883 11.8103 25.782 20.6759 26.5264 25.6369C26.5405 25.7309 26.5873 25.8078 26.6497 25.8772C26.8291 26.0764 27.1507 26.0426 27.2848 25.8104C27.3226 25.7449 27.3409 25.6721 27.3373 25.5965C27.2082 22.8605 26.0698 10.0485 31.2018 10.3015Z" fill="#A4F6D6"/>
<path d="M31.2018 10.3015C33.1029 10.3953 34.6155 11.9663 34.6155 13.8906C34.6155 14.6699 35.459 15.1569 36.1339 14.7673C37.8004 13.8051 39.9172 14.3295 40.9489 15.929C44.0939 20.8049 32.2241 25.6562 29.5001 27.0163C29.4562 27.0382 29.4197 27.0726 29.3952 27.1151C29.2776 27.3188 29.4783 27.5585 29.6986 27.476C32.1871 26.5445 43.3814 21.9296 44.6786 26.7113C45.1769 28.5483 44.1502 30.4723 42.32 31.067C41.5789 31.3078 41.3764 32.2605 41.9555 32.782C43.2053 33.9072 43.8407 36.919 42.0667 37.9522C38.0987 40.2635 31.9083 33.9707 28.3752 30.3792C28.2788 30.2812 28.215 30.207 28.0772 30.1776C27.8 30.1187 27.5428 30.3403 27.5711 30.6222C27.9989 34.8798 30.3598 38.7578 34.0389 40.9877C36.4654 42.4582 34.4672 44.7628 32.8117 43.903C28.0186 41.4138 25.3832 36.0483 26.3592 30.723C26.4228 30.3762 25.9262 30.2091 25.7795 30.5166C24.5988 32.9913 19.5406 44.8454 15.1323 42.1935C13.5013 41.2123 12.911 39.1129 13.8206 37.4171C14.1889 36.7304 13.6758 35.9025 12.8969 35.9268C10.9735 35.987 9.35596 34.5243 9.20285 32.6271C8.71277 26.5545 21.3407 28.1749 24.4776 28.2666C24.5625 28.2691 24.6464 28.2465 24.7186 28.2017C25.1074 27.9608 25.089 27.4617 24.4754 27.2939C21.8376 26.5721 9.33969 23.6971 11.163 18.9029C11.8396 17.1239 13.8011 16.1708 15.6313 16.7655C16.3724 17.0063 17.0962 16.3545 16.9342 15.5923C16.5846 13.9473 17.8407 11.1373 19.8832 11.3441C24.4883 11.8103 25.782 20.6759 26.5264 25.6369C26.5405 25.7309 26.5873 25.8078 26.6497 25.8772C26.8291 26.0764 27.1507 26.0426 27.2848 25.8104C27.3226 25.7449 27.3409 25.6721 27.3373 25.5965C27.2082 22.8605 26.0698 10.0485 31.2018 10.3015Z" fill="url(#paint0_radial_135_7244)" fill-opacity="0.2"/>
<path d="M31.2583 9.16406L31.4907 9.18164C33.8157 9.41064 35.645 11.3205 35.7485 13.6797C37.9129 12.553 40.5843 13.263 41.9058 15.3115L42.0845 15.6113C42.4716 16.3163 42.6448 17.0544 42.6089 17.8037C42.5685 18.6453 42.2686 19.4254 41.8403 20.123C41.0075 21.4798 39.5905 22.6846 38.1079 23.7021C39.57 23.4462 41.0597 23.3347 42.3394 23.5615C43.8692 23.8327 45.2978 24.6438 45.7778 26.4131L45.8335 26.6406C46.3339 28.9231 45.0815 31.2534 42.8687 32.0801C43.6636 32.8838 44.1718 34.1265 44.2788 35.2979C44.3856 36.4679 44.1056 37.912 42.895 38.7725L42.6401 38.9365C41.3104 39.711 39.8454 39.7227 38.4546 39.3486C37.0809 38.9791 35.7006 38.2158 34.4067 37.3135C32.5188 35.9968 30.6758 34.2812 29.1362 32.7588C29.9943 35.7574 31.9265 38.3755 34.6294 40.0137L34.9087 40.1963C35.5368 40.6392 35.9876 41.1945 36.1909 41.8447C36.4263 42.5977 36.284 43.3374 35.9253 43.918C35.2853 44.9537 33.8887 45.5666 32.5532 45.0352L32.2866 44.9141C28.2665 42.8263 25.6389 38.8875 25.1167 34.5381C24.4158 35.9224 23.5619 37.4895 22.6138 38.9102C21.6088 40.4159 20.4313 41.869 19.1421 42.7695C17.9013 43.6362 16.3784 44.0898 14.8511 43.3359L14.5454 43.1689C12.4563 41.9121 11.6632 39.2642 12.7222 37.0654C10.3607 37.0361 8.39402 35.268 8.09229 32.9512L8.06787 32.7188C7.99016 31.7558 8.1711 30.8854 8.59912 30.1309C9.02207 29.3855 9.64708 28.8211 10.354 28.3955C11.7381 27.5624 13.5738 27.1782 15.3687 27.002C16.5111 26.8898 17.7099 26.8574 18.8589 26.8672C17.8118 26.5194 16.7237 26.1197 15.6909 25.6689C14.039 24.9479 12.4076 24.0487 11.2983 22.9414C10.1594 21.8043 9.42453 20.2694 10.0981 18.498L10.187 18.2812C11.1237 16.1406 13.5067 14.9913 15.7827 15.623C15.6122 14.5055 15.9317 13.2009 16.5337 12.1904C17.1752 11.114 18.3558 10.0449 19.9976 10.2109L20.2837 10.249C21.6903 10.4769 22.7968 11.3019 23.6479 12.3643C24.545 13.484 25.2139 14.9296 25.73 16.4355C25.8589 16.8116 25.9786 17.1968 26.0923 17.5869C26.1121 17.296 26.1357 17.0054 26.1636 16.7178C26.3381 14.9191 26.6885 13.0851 27.3989 11.6846C28.1284 10.2466 29.3622 9.07059 31.2583 9.16406Z" stroke="white" stroke-width="2.27758"/>
</g>
<g filter="url(#filter1_dii_135_7244)">
<path d="M31.2018 10.3019C33.1029 10.3956 34.6155 11.9667 34.6155 13.891C34.6155 14.6702 35.459 15.1572 36.1339 14.7676C37.8004 13.8055 39.9172 14.3298 40.9489 15.9294C44.0939 20.8052 32.2241 25.6565 29.5001 27.0166C29.4562 27.0386 29.4197 27.0729 29.3952 27.1154C29.2776 27.3191 29.4783 27.5588 29.6986 27.4764C32.1871 26.5448 43.3814 21.9299 44.6786 26.7117C45.1769 28.5487 44.1502 30.4727 42.32 31.0673C41.5789 31.3081 41.3764 32.2609 41.9555 32.7823C43.2053 33.9076 43.8407 36.9193 42.0667 37.9526C38.0987 40.2638 31.9083 33.971 28.3752 30.3796C28.2788 30.2816 28.215 30.2073 28.0772 30.178C27.8 30.1191 27.5428 30.3406 27.5711 30.6226C27.9989 34.8801 30.3598 38.7582 34.0389 40.988C36.4654 42.4586 34.4672 44.7631 32.8117 43.9033C28.0186 41.4141 25.3832 36.0486 26.3592 30.7233C26.4228 30.3765 25.9262 30.2094 25.7795 30.5169C24.5988 32.9916 19.5406 44.8458 15.1323 42.1938C13.5013 41.2126 12.911 39.1132 13.8206 37.4174C14.1889 36.7307 13.6758 35.9028 12.8969 35.9272C10.9735 35.9873 9.35596 34.5246 9.20285 32.6274C8.71277 26.5549 21.3407 28.1752 24.4776 28.2669C24.5625 28.2694 24.6464 28.2468 24.7186 28.2021C25.1074 27.9611 25.089 27.4621 24.4754 27.2942C21.8376 26.5724 9.33969 23.6974 11.163 18.9033C11.8396 17.1242 13.8011 16.1711 15.6313 16.7658C16.3724 17.0066 17.0962 16.3548 16.9342 15.5926C16.5846 13.9477 17.8407 11.1376 19.8832 11.3444C24.4883 11.8106 25.782 20.6762 26.5264 25.6372C26.5405 25.7312 26.5873 25.8082 26.6497 25.8775C26.8291 26.0768 27.1507 26.043 27.2848 25.8108C27.3226 25.7453 27.3409 25.6724 27.3373 25.5969C27.2082 22.8609 26.0698 10.0489 31.2018 10.3019Z" fill="#A4F6D6"/>
<path d="M31.2018 10.3019C33.1029 10.3956 34.6155 11.9667 34.6155 13.891C34.6155 14.6702 35.459 15.1572 36.1339 14.7676C37.8004 13.8055 39.9172 14.3298 40.9489 15.9294C44.0939 20.8052 32.2241 25.6565 29.5001 27.0166C29.4562 27.0386 29.4197 27.0729 29.3952 27.1154C29.2776 27.3191 29.4783 27.5588 29.6986 27.4764C32.1871 26.5448 43.3814 21.9299 44.6786 26.7117C45.1769 28.5487 44.1502 30.4727 42.32 31.0673C41.5789 31.3081 41.3764 32.2609 41.9555 32.7823C43.2053 33.9076 43.8407 36.9193 42.0667 37.9526C38.0987 40.2638 31.9083 33.971 28.3752 30.3796C28.2788 30.2816 28.215 30.2073 28.0772 30.178C27.8 30.1191 27.5428 30.3406 27.5711 30.6226C27.9989 34.8801 30.3598 38.7582 34.0389 40.988C36.4654 42.4586 34.4672 44.7631 32.8117 43.9033C28.0186 41.4141 25.3832 36.0486 26.3592 30.7233C26.4228 30.3765 25.9262 30.2094 25.7795 30.5169C24.5988 32.9916 19.5406 44.8458 15.1323 42.1938C13.5013 41.2126 12.911 39.1132 13.8206 37.4174C14.1889 36.7307 13.6758 35.9028 12.8969 35.9272C10.9735 35.9873 9.35596 34.5246 9.20285 32.6274C8.71277 26.5549 21.3407 28.1752 24.4776 28.2669C24.5625 28.2694 24.6464 28.2468 24.7186 28.2021C25.1074 27.9611 25.089 27.4621 24.4754 27.2942C21.8376 26.5724 9.33969 23.6974 11.163 18.9033C11.8396 17.1242 13.8011 16.1711 15.6313 16.7658C16.3724 17.0066 17.0962 16.3548 16.9342 15.5926C16.5846 13.9477 17.8407 11.1376 19.8832 11.3444C24.4883 11.8106 25.782 20.6762 26.5264 25.6372C26.5405 25.7312 26.5873 25.8082 26.6497 25.8775C26.8291 26.0768 27.1507 26.043 27.2848 25.8108C27.3226 25.7453 27.3409 25.6724 27.3373 25.5969C27.2082 22.8609 26.0698 10.0489 31.2018 10.3019Z" fill="url(#paint1_radial_135_7244)" fill-opacity="0.2"/>
<path d="M31.2153 10.0355L31.4048 10.0492C33.3571 10.2414 34.8823 11.8882 34.8823 13.891L34.8892 13.9964C34.9595 14.5074 35.5346 14.8054 36.0005 14.5365L36.1694 14.4447C37.9315 13.5394 40.0995 14.1198 41.1733 15.7845L41.3198 16.0296C41.6352 16.603 41.7656 17.1841 41.7378 17.763C41.7061 18.421 41.4704 19.0592 41.0972 19.6673C40.3542 20.8776 39.0424 22.0096 37.5757 23.0121C34.8707 24.8609 31.5328 26.3404 29.9771 27.0843C31.4396 26.5251 34.5722 25.3093 37.5815 24.6908C39.2276 24.3525 40.866 24.1862 42.187 24.4203C43.5184 24.6562 44.5753 25.3121 44.936 26.6419L44.981 26.8275C45.3874 28.6816 44.3762 30.576 42.5845 31.2572L42.4028 31.3206C41.857 31.498 41.7077 32.2003 42.1343 32.5843L42.2603 32.7054C42.8791 33.3386 43.3186 34.3701 43.4106 35.3773C43.5027 36.3856 43.2493 37.4503 42.3823 38.0658L42.2007 38.183C41.1297 38.8067 39.9208 38.8406 38.6812 38.5072C37.4454 38.1748 36.1604 37.4729 34.9058 36.598C33.024 35.2856 31.1764 33.5572 29.6265 32.0189L28.1851 30.5667C28.1282 30.5089 28.1054 30.4849 28.0796 30.4652C28.0715 30.4591 28.0641 30.4538 28.0552 30.4496L28.022 30.4388C27.9136 30.4158 27.8269 30.5017 27.8364 30.596L27.8813 30.9867C28.4023 35.0095 30.6852 38.6437 34.1772 40.7601L34.4067 40.9105C34.9146 41.2685 35.2244 41.6784 35.3579 42.1048C35.5111 42.5946 35.4213 43.0736 35.1831 43.4593C34.7438 44.1703 33.7837 44.5866 32.8706 44.223L32.689 44.14C27.7921 41.5969 25.1 36.1158 26.0972 30.6751V30.6566C26.0967 30.6545 26.0959 30.6523 26.0942 30.6497C26.0899 30.6433 26.0793 30.6327 26.061 30.6263C26.0429 30.62 26.0299 30.6222 26.0259 30.6234C26.0248 30.6237 26.0245 30.6237 26.0249 30.6234L26.02 30.6322C25.4352 31.858 23.8648 35.4645 21.8882 38.4261C20.9011 39.905 19.796 41.2491 18.6421 42.055C17.5528 42.8157 16.3774 43.1204 15.2251 42.5482L14.9946 42.4222C13.2426 41.3681 12.6084 39.113 13.5854 37.2914L13.6294 37.1956C13.7973 36.7442 13.4893 36.248 13.0103 36.1976L12.9048 36.1937C10.9033 36.2561 9.2108 34.7834 8.95752 32.8382L8.93701 32.6488C8.87192 31.842 9.02445 31.1486 9.35791 30.5609C9.69018 29.9754 10.193 29.5108 10.8042 29.1429C12.0196 28.4113 13.6979 28.0429 15.4536 27.8705C18.9634 27.5258 22.9505 27.9554 24.4858 28.0003L24.5337 27.9945C24.5492 27.9903 24.5638 27.9835 24.5776 27.9749L24.6528 27.9164C24.7094 27.8575 24.7162 27.8014 24.7104 27.7699C24.7039 27.7345 24.6648 27.6455 24.4888 27.5785L24.4048 27.5511C23.098 27.1936 19.2883 26.2885 16.0396 24.8705C14.4174 24.1624 12.9068 23.3151 11.9146 22.3246C10.9154 21.327 10.407 20.1414 10.9136 18.8089L10.9858 18.6322C11.772 16.835 13.8088 15.8934 15.7134 16.5121L15.8159 16.5374C16.2899 16.6226 16.7232 16.2326 16.688 15.7523L16.6733 15.6478C16.4818 14.7463 16.7306 13.5649 17.2827 12.638C17.8354 11.7103 18.7432 10.9615 19.9097 11.0794L20.1401 11.1097C21.2776 11.2932 22.2076 11.9614 22.9673 12.9095C23.7751 13.9178 24.404 15.258 24.9048 16.7191C25.9061 19.641 26.4192 23.123 26.7905 25.598L26.8052 25.641C26.814 25.6574 26.8277 25.6768 26.8481 25.6996L26.8989 25.7337C26.9548 25.7541 27.0217 25.7334 27.0542 25.6771L27.0679 25.6439L27.0708 25.6097C27.0069 24.2548 26.6877 20.341 27.0308 16.8031C27.2021 15.0365 27.5414 13.3328 28.1772 12.0794C28.8175 10.8175 29.7889 9.96517 31.2153 10.0355Z" stroke="#6AEBC2" stroke-width="0.533333"/>
</g>
<defs>
<filter id="filter0_di_135_7244" x="6.25365" y="7.81754" width="41.4863" height="40.7305" filterUnits="userSpaceOnUse" color-interpolation-filters="sRGB">
<feFlood flood-opacity="0" result="BackgroundImageFix"/>
<feColorMatrix in="SourceAlpha" type="matrix" values="0 0 0 0 0 0 0 0 0 0 0 0 0 0 0 0 0 0 127 0" result="hardAlpha"/>
<feOffset dy="0.455516"/>
<feGaussianBlur stdDeviation="0.328984"/>
<feComposite in2="hardAlpha" operator="out"/>
<feColorMatrix type="matrix" values="0 0 0 0 0.491667 0 0 0 0 0.491667 0 0 0 0 0.491667 0 0 0 0.25 0"/>
<feBlend mode="normal" in2="BackgroundImageFix" result="effect1_dropShadow_135_7244"/>
<feBlend mode="normal" in="SourceGraphic" in2="effect1_dropShadow_135_7244" result="shape"/>
<feColorMatrix in="SourceAlpha" type="matrix" values="0 0 0 0 0 0 0 0 0 0 0 0 0 0 0 0 0 0 127 0" result="hardAlpha"/>
<feOffset dx="-0.404903" dy="2.78371"/>
<feGaussianBlur stdDeviation="1.08818"/>
<feComposite in2="hardAlpha" operator="arithmetic" k2="-1" k3="1"/>
<feColorMatrix type="matrix" values="0 0 0 0 0.643137 0 0 0 0 0.964706 0 0 0 0 0.839216 0 0 0 1 0"/>
<feBlend mode="normal" in2="shape" result="effect2_innerShadow_135_7244"/>
</filter>
<filter id="filter1_dii_135_7244" x="7.99779" y="9.56235" width="37.9976" height="36.1756" filterUnits="userSpaceOnUse" color-interpolation-filters="sRGB">
<feFlood flood-opacity="0" result="BackgroundImageFix"/>
<feColorMatrix in="SourceAlpha" type="matrix" values="0 0 0 0 0 0 0 0 0 0 0 0 0 0 0 0 0 0 127 0" result="hardAlpha"/>
<feOffset dy="0.455516"/>
<feGaussianBlur stdDeviation="0.328984"/>
<feComposite in2="hardAlpha" operator="out"/>
<feColorMatrix type="matrix" values="0 0 0 0 0.491667 0 0 0 0 0.491667 0 0 0 0 0.491667 0 0 0 0.25 0"/>
<feBlend mode="normal" in2="BackgroundImageFix" result="effect1_dropShadow_135_7244"/>
<feBlend mode="normal" in="SourceGraphic" in2="effect1_dropShadow_135_7244" result="shape"/>
<feColorMatrix in="SourceAlpha" type="matrix" values="0 0 0 0 0 0 0 0 0 0 0 0 0 0 0 0 0 0 127 0" result="hardAlpha"/>
<feOffset dx="0.4" dy="0.266667"/>
<feGaussianBlur stdDeviation="0.933333"/>
<feComposite in2="hardAlpha" operator="arithmetic" k2="-1" k3="1"/>
<feColorMatrix type="matrix" values="0 0 0 0 0.733333 0 0 0 0 1 0 0 0 0 0.72549 0 0 0 1 0"/>
<feBlend mode="normal" in2="shape" result="effect2_innerShadow_135_7244"/>
<feColorMatrix in="SourceAlpha" type="matrix" values="0 0 0 0 0 0 0 0 0 0 0 0 0 0 0 0 0 0 127 0" result="hardAlpha"/>
<feOffset dx="-0.404903" dy="0.266667"/>
<feGaussianBlur stdDeviation="0.933333"/>
<feComposite in2="hardAlpha" operator="arithmetic" k2="-1" k3="1"/>
<feColorMatrix type="matrix" values="0 0 0 0 0.415686 0 0 0 0 0.921569 0 0 0 0 0.760784 0 0 0 1 0"/>
<feBlend mode="normal" in2="effect2_innerShadow_135_7244" result="effect3_innerShadow_135_7244"/>
</filter>
<radialGradient id="paint0_radial_135_7244" cx="0" cy="0" r="1" gradientUnits="userSpaceOnUse" gradientTransform="translate(26.8869 25.2081) rotate(152.889) scale(27.1231 27.5415)">
<stop offset="0.564818" stop-color="#A4F6D6"/>
<stop offset="1" stop-color="#00A67F"/>
</radialGradient>
<radialGradient id="paint1_radial_135_7244" cx="0" cy="0" r="1" gradientUnits="userSpaceOnUse" gradientTransform="translate(26.8869 25.2084) rotate(152.889) scale(27.1231 27.5415)">
<stop offset="0.564818" stop-color="#A4F6D6"/>
<stop offset="1" stop-color="#00A67F"/>
</radialGradient>
</defs>
</svg>
