<svg width="100" height="38" viewBox="0 0 100 38" fill="none" xmlns="http://www.w3.org/2000/svg">
<path d="M0 19C0 8.50659 8.50659 0 19 0H81C91.4934 0 100 8.50659 100 19C100 29.4934 91.4934 38 81 38H19C8.50659 38 0 29.4934 0 19Z" fill="#F6F8FA"/>
<path d="M27.5356 25V13.022H32.0263C33.2161 13.022 34.2288 13.2544 35.0644 13.7192C35.9056 14.1841 36.5475 14.8592 36.9902 15.7446C37.4385 16.63 37.6626 17.6981 37.6626 18.9487V18.9653C37.6626 20.2437 37.4412 21.3338 36.9985 22.2358C36.5558 23.1323 35.9139 23.8185 35.0727 24.2944C34.2371 24.7648 33.2217 25 32.0263 25H27.5356ZM29.6772 23.1987H31.7441C32.5355 23.1987 33.2106 23.0355 33.7695 22.709C34.3284 22.3825 34.7518 21.9066 35.0395 21.2812C35.3328 20.6559 35.4795 19.895 35.4795 18.9985V18.9819C35.4795 18.1076 35.3301 17.3605 35.0312 16.7407C34.7379 16.1154 34.3118 15.6395 33.7529 15.313C33.194 14.9865 32.5244 14.8232 31.7441 14.8232H29.6772V23.1987ZM44.8527 25.2988C43.6795 25.2988 42.6696 25.0443 41.8229 24.5352C40.9818 24.0205 40.3315 23.2928 39.8722 22.3521C39.4129 21.4113 39.1833 20.299 39.1833 19.0151V18.9985C39.1833 17.7091 39.4129 16.5968 39.8722 15.6616C40.3371 14.7209 40.9928 13.9959 41.8395 13.4868C42.6917 12.9777 43.6961 12.7231 44.8527 12.7231C46.0148 12.7231 47.0192 12.9777 47.8659 13.4868C48.7126 13.9959 49.3656 14.7209 49.8249 15.6616C50.2842 16.6024 50.5138 17.7147 50.5138 18.9985V19.0151C50.5138 20.299 50.2842 21.4113 49.8249 22.3521C49.3711 23.2928 48.7209 24.0205 47.8742 24.5352C47.0275 25.0443 46.0203 25.2988 44.8527 25.2988ZM44.8527 23.4478C45.5666 23.4478 46.1836 23.2651 46.7038 22.8999C47.224 22.5347 47.6252 22.02 47.9074 21.356C48.1951 20.6919 48.339 19.9116 48.339 19.0151V18.9985C48.339 18.0965 48.1951 17.3162 47.9074 16.6577C47.6252 15.9937 47.224 15.4818 46.7038 15.1221C46.1836 14.7568 45.5666 14.5742 44.8527 14.5742C44.1444 14.5742 43.5273 14.7568 43.0016 15.1221C42.4814 15.4818 42.0775 15.9937 41.7897 16.6577C41.5075 17.3162 41.3664 18.0965 41.3664 18.9985V19.0151C41.3664 19.9116 41.5047 20.6919 41.7814 21.356C42.0636 22.02 42.4648 22.5347 42.985 22.8999C43.5107 23.2651 44.1333 23.4478 44.8527 23.4478ZM52.5409 25V13.022H54.4002L60.825 22.0283L59.3475 21.2729H60.4183V13.022H62.4769V25H60.6258L54.201 15.9854L55.6786 16.7407H54.6078V25H52.5409ZM65.0103 25V13.022H72.7632V14.8232H67.1519V18.0688H72.4561V19.7705H67.1519V23.1987H72.7632V25H65.0103Z" fill="#242628"/>
</svg>
