<svg width="100" height="38" viewBox="0 0 100 38" fill="none" xmlns="http://www.w3.org/2000/svg">
<path d="M0 19C0 8.50659 8.50659 0 19 0H81C91.4934 0 100 8.50659 100 19C100 29.4934 91.4934 38 81 38H19C8.50659 38 0 29.4934 0 19Z" fill="#F6F8FA"/>
<path d="M28.174 25V14.8232H24.4884V13.022H34.0011V14.8232H30.3156V25H28.174ZM40.5355 25.2988C39.3623 25.2988 38.3524 25.0443 37.5057 24.5352C36.6645 24.0205 36.0143 23.2928 35.555 22.3521C35.0957 21.4113 34.866 20.299 34.866 19.0151V18.9985C34.866 17.7091 35.0957 16.5968 35.555 15.6616C36.0198 14.7209 36.6756 13.9959 37.5223 13.4868C38.3745 12.9777 39.3789 12.7231 40.5355 12.7231C41.6976 12.7231 42.702 12.9777 43.5487 13.4868C44.3953 13.9959 45.0483 14.7209 45.5076 15.6616C45.9669 16.6024 46.1966 17.7147 46.1966 18.9985V19.0151C46.1966 20.299 45.9669 21.4113 45.5076 22.3521C45.0539 23.2928 44.4036 24.0205 43.557 24.5352C42.7103 25.0443 41.7031 25.2988 40.5355 25.2988ZM40.5355 23.4478C41.2493 23.4478 41.8664 23.2651 42.3865 22.8999C42.9067 22.5347 43.3079 22.02 43.5902 21.356C43.8779 20.6919 44.0218 19.9116 44.0218 19.0151V18.9985C44.0218 18.0965 43.8779 17.3162 43.5902 16.6577C43.3079 15.9937 42.9067 15.4818 42.3865 15.1221C41.8664 14.7568 41.2493 14.5742 40.5355 14.5742C39.8271 14.5742 39.2101 14.7568 38.6844 15.1221C38.1642 15.4818 37.7602 15.9937 37.4725 16.6577C37.1903 17.3162 37.0491 18.0965 37.0491 18.9985V19.0151C37.0491 19.9116 37.1875 20.6919 37.4642 21.356C37.7464 22.02 38.1476 22.5347 38.6678 22.8999C39.1935 23.2651 39.8161 23.4478 40.5355 23.4478ZM52.3259 25V13.022H56.8166C58.0064 13.022 59.0191 13.2544 59.8547 13.7192C60.6958 14.1841 61.3377 14.8592 61.7804 15.7446C62.2287 16.63 62.4528 17.6981 62.4528 18.9487V18.9653C62.4528 20.2437 62.2315 21.3338 61.7887 22.2358C61.346 23.1323 60.7041 23.8185 59.863 24.2944C59.0274 24.7648 58.0119 25 56.8166 25H52.3259ZM54.4675 23.1987H56.5344C57.3257 23.1987 58.0008 23.0355 58.5597 22.709C59.1187 22.3825 59.542 21.9066 59.8298 21.2812C60.1231 20.6559 60.2697 19.895 60.2697 18.9985V18.9819C60.2697 18.1076 60.1203 17.3605 59.8215 16.7407C59.5282 16.1154 59.1021 15.6395 58.5431 15.313C57.9842 14.9865 57.3146 14.8232 56.5344 14.8232H54.4675V23.1987ZM69.6429 25.2988C68.4698 25.2988 67.4598 25.0443 66.6131 24.5352C65.772 24.0205 65.1218 23.2928 64.6625 22.3521C64.2032 21.4113 63.9735 20.299 63.9735 19.0151V18.9985C63.9735 17.7091 64.2032 16.5968 64.6625 15.6616C65.1273 14.7209 65.7831 13.9959 66.6297 13.4868C67.482 12.9777 68.4864 12.7231 69.6429 12.7231C70.805 12.7231 71.8094 12.9777 72.6561 13.4868C73.5028 13.9959 74.1558 14.7209 74.6151 15.6616C75.0744 16.6024 75.3041 17.7147 75.3041 18.9985V19.0151C75.3041 20.299 75.0744 21.4113 74.6151 22.3521C74.1613 23.2928 73.5111 24.0205 72.6644 24.5352C71.8177 25.0443 70.8106 25.2988 69.6429 25.2988ZM69.6429 23.4478C70.3568 23.4478 70.9738 23.2651 71.494 22.8999C72.0142 22.5347 72.4154 22.02 72.6976 21.356C72.9854 20.6919 73.1293 19.9116 73.1293 19.0151V18.9985C73.1293 18.0965 72.9854 17.3162 72.6976 16.6577C72.4154 15.9937 72.0142 15.4818 71.494 15.1221C70.9738 14.7568 70.3568 14.5742 69.6429 14.5742C68.9346 14.5742 68.3176 14.7568 67.7919 15.1221C67.2717 15.4818 66.8677 15.9937 66.5799 16.6577C66.2977 17.3162 66.1566 18.0965 66.1566 18.9985V19.0151C66.1566 19.9116 66.2949 20.6919 66.5716 21.356C66.8539 22.02 67.2551 22.5347 67.7753 22.8999C68.301 23.2651 68.9235 23.4478 69.6429 23.4478Z" fill="#242628"/>
</svg>
